<svg xmlns="http://www.w3.org/2000/svg" viewBox="0 11.423076629638672 203.9499969482422 36.42692184448242" data-asc="0.95" width="203.9499969482422" height="36.42692184448242"><defs/><g fill="#000000"><g transform="translate(0, 0)"><path d="M4.25 39.60Q4.60 41.10 5.45 41.95Q6.30 42.80 7.47 43.17Q8.65 43.55 9.95 43.55Q12.20 43.55 13.45 42.65Q14.70 41.75 14.70 40.40Q14.70 39.25 13.92 38.58Q13.15 37.90 11.88 37.50Q10.60 37.10 9.15 36.75Q7.85 36.40 6.32 35.95Q4.80 35.50 3.48 34.73Q2.15 33.95 1.30 32.73Q0.45 31.50 0.45 29.60Q0.45 27.35 1.68 25.67Q2.90 24 5.08 23.07Q7.25 22.15 10 22.15Q13.20 22.15 15.63 23.52Q18.05 24.90 19.15 27.65L14.90 29.05Q14.55 28.10 13.75 27.50Q12.95 26.90 11.93 26.67Q10.90 26.45 9.90 26.45Q8 26.45 6.75 27.20Q5.50 27.95 5.50 29.40Q5.50 30.20 5.90 30.72Q6.30 31.25 7.03 31.57Q7.75 31.90 8.75 32.15Q9.75 32.40 10.90 32.70Q12.40 33.15 13.95 33.67Q15.50 34.20 16.80 35Q18.10 35.80 18.90 37.10Q19.70 38.40 19.75 40.30Q19.75 42.50 18.53 44.20Q17.30 45.90 15.08 46.88Q12.85 47.85 9.80 47.85Q6.10 47.85 3.50 46.20Q0.90 44.55 0 41.10L4.25 39.60ZM27.05 22.50L27.05 15.50L31.80 15.50L31.80 22.50L38.05 22.50L38.05 26.70L31.80 26.70L31.80 39Q31.80 41.30 32.73 42.25Q33.65 43.20 35.08 43.33Q36.50 43.45 38.05 43.25L38.05 47.30Q36 47.75 34.03 47.58Q32.05 47.40 30.48 46.45Q28.90 45.50 27.98 43.67Q27.05 41.85 27.05 39L27.05 26.70L23.45 26.70L23.45 22.50L27.05 22.50ZM54.15 47.85Q50.55 47.85 47.78 46.17Q45 44.50 43.43 41.55Q41.85 38.60 41.85 34.80Q41.85 31.15 43.40 28.30Q44.95 25.45 47.68 23.80Q50.40 22.15 53.85 22.15Q57.35 22.15 60.05 23.67Q62.75 25.20 64.25 27.92Q65.75 30.65 65.70 34.20Q65.70 34.80 65.65 35.42Q65.60 36.05 65.50 36.80L47 36.80Q47.15 38.80 48.13 40.33Q49.10 41.85 50.63 42.70Q52.15 43.55 54.10 43.55Q56.60 43.55 58.45 42.58Q60.30 41.60 61.05 39.95L65.15 41.40Q63.65 44.45 60.78 46.15Q57.90 47.85 54.15 47.85M60.55 32.75Q60.55 30.95 59.65 29.50Q58.75 28.05 57.23 27.22Q55.70 26.40 53.80 26.40Q52.10 26.40 50.68 27.22Q49.25 28.05 48.28 29.47Q47.30 30.90 47.05 32.75L60.55 32.75ZM90.30 26.75L89.75 26.90L89.75 11.50L94.50 11.50L94.50 47.50L90.20 47.50L89.85 43.75Q88.60 45.45 86.48 46.65Q84.35 47.85 81.30 47.85Q77.90 47.85 75.38 46.25Q72.85 44.65 71.43 41.75Q70.00 38.85 70.00 35Q70.00 31.15 71.43 28.25Q72.85 25.35 75.38 23.75Q77.90 22.15 81.30 22.15Q84.55 22.15 86.83 23.47Q89.10 24.80 90.30 26.75M75.05 35Q75.05 38.85 77.05 41.20Q79.05 43.55 82.40 43.55Q84.45 43.55 86.10 42.55Q87.75 41.55 88.75 39.63Q89.75 37.70 89.75 35Q89.75 32.30 88.75 30.40Q87.75 28.50 86.10 27.47Q84.45 26.45 82.40 26.45Q79.10 26.45 77.08 28.80Q75.05 31.15 75.05 35ZM102.85 19.70Q102.85 16.85 103.83 14.90Q104.80 12.95 106.85 12.07Q108.90 11.20 112.25 11.50L112.25 15.65Q109.65 15.40 108.63 16.45Q107.60 17.50 107.60 19.70L107.60 22.50L112.55 22.50L112.55 26.70L107.60 26.70L107.60 47.50L102.85 47.50L102.85 26.70L99.65 26.70L99.65 22.50L102.85 22.50L102.85 19.70ZM133.05 47.50L132.65 43.85Q131.50 45.75 129.68 46.77Q127.85 47.80 124.95 47.80Q122.25 47.80 120.35 46.92Q118.45 46.05 117.43 44.48Q116.40 42.90 116.40 40.80Q116.40 37.65 118.75 35.58Q121.10 33.50 125.55 33L132.65 32.20L132.65 30.25Q132.65 28.65 131.35 27.52Q130.05 26.40 127.60 26.40Q125.30 26.40 123.70 27.47Q122.10 28.55 121.55 30.65L117.35 29.15Q118.30 25.85 121.08 24Q123.85 22.15 127.80 22.15Q132.50 22.15 134.95 24.50Q137.40 26.85 137.40 30.70L137.40 47.50L133.05 47.50M132.65 36.05L125.80 36.90Q123.60 37.20 122.50 38.13Q121.40 39.05 121.40 40.55Q121.40 41.95 122.48 42.88Q123.55 43.80 125.50 43.80Q127.90 43.80 129.50 42.90Q131.10 42 131.88 40.38Q132.65 38.75 132.65 36.60L132.65 36.05ZM146.95 39.60Q147.30 41.10 148.15 41.95Q149 42.80 150.18 43.17Q151.35 43.55 152.65 43.55Q154.90 43.55 156.15 42.65Q157.40 41.75 157.40 40.40Q157.40 39.25 156.63 38.58Q155.85 37.90 154.58 37.50Q153.30 37.10 151.85 36.75Q150.55 36.40 149.03 35.95Q147.50 35.50 146.18 34.73Q144.85 33.95 144 32.73Q143.15 31.50 143.15 29.60Q143.15 27.35 144.38 25.67Q145.60 24 147.78 23.07Q149.95 22.15 152.70 22.15Q155.90 22.15 158.33 23.52Q160.75 24.90 161.85 27.65L157.60 29.05Q157.25 28.10 156.45 27.50Q155.65 26.90 154.63 26.67Q153.60 26.45 152.60 26.45Q150.70 26.45 149.45 27.20Q148.20 27.95 148.20 29.40Q148.20 30.20 148.60 30.72Q149 31.25 149.73 31.57Q150.45 31.90 151.45 32.15Q152.45 32.40 153.60 32.70Q155.10 33.15 156.65 33.67Q158.20 34.20 159.50 35Q160.80 35.80 161.60 37.10Q162.40 38.40 162.45 40.30Q162.45 42.50 161.23 44.20Q160 45.90 157.78 46.88Q155.55 47.85 152.50 47.85Q148.80 47.85 146.20 46.20Q143.60 44.55 142.70 41.10L146.95 39.60ZM169.75 22.50L169.75 15.50L174.50 15.50L174.50 22.50L180.75 22.50L180.75 26.70L174.50 26.70L174.50 39Q174.50 41.30 175.43 42.25Q176.35 43.20 177.78 43.33Q179.20 43.45 180.75 43.25L180.75 47.30Q178.70 47.75 176.73 47.58Q174.75 47.40 173.18 46.45Q171.60 45.50 170.68 43.67Q169.75 41.85 169.75 39L169.75 26.70L166.15 26.70L166.15 22.50L169.75 22.50ZM203.90 26.35L190.65 43.30L203.95 43.30L203.95 47.50L184.75 47.50L184.75 43.65L198.05 26.70L184.80 26.70L184.80 22.50L203.90 22.50L203.90 26.35Z"/></g></g></svg>